# xmcd
#
# Track frame offsets:
# 188
# 13613
# 27563
# 44063
# 58613
# 72188
# 86325
# 100125
# 115388
# 129150
# 143363
# 157613
# 170963
# 186038
# 200400
# 219225
#
# Disc length: 3120 seconds
#
#
# Revision: 0
# Processed by: cddbd v1.5.2PL0 Copyright (c) Steve Scherf et al.
# Submitted via: FreeRIP 2.951 
#
DISCID=d50c2e10
DTITLE=Die_volkstuemliche_Hitparade - Die_volkstuemliche_Hitparade
DYEAR=1900
DGENRE=
TTITLE0=Original Naabtal Duo - Der Wirt von nebenan
TTITLE1=Patrick Lindner - Ich haett' dich sowieso gekuesst
TTITLE2=Pitztaler Nachtigalln - Komm mit ins Stubaital
TTITLE3=Die Plauderer - Schwarze Engel Einsamkeit
TTITLE4=Walter Scholz - Der Trompeter und der Junge mit der Mundharmonika
TTITLE5=Nockalm Quinett - Schau mich bitte nicht so traurig an
TTITLE6=Hansl Krönauer - Es soll kein Abschied sein
TTITLE7=Obervellacher Buam - Mein grosser Stern
TTITLE8=Alpentrio Tirol - Die Wahrheit hat nur ein Gesicht
TTITLE9=Kastelruther Spatzen - Da war die Sonne in deinen Augen
TTITLE10=Michael and Stefanie Hertel - Jeder braucht sein Kuscheltier
TTITLE11=Zillertaler Jodlertrio - Du, verlier nicht den Mut
TTITLE12=Tony Marshall - Mein Elternhaus
TTITLE13=Heimatduo Judith and Mel - Adieu, mein Kapitaen
TTITLE14=Speelwark - Wenn der Wind weht
TTITLE15=Knut Kiesewetter and Familie - Morgenlicht
EXTD=
EXTT0=
EXTT1=
EXTT2=
EXTT3=
EXTT4=
EXTT5=
EXTT6=
EXTT7=
EXTT8=
EXTT9=
EXTT10=
EXTT11=
EXTT12=
EXTT13=
EXTT14=
EXTT15=
PLAYORDER=
